<?xml version="1.0" standalone="no"?>
<!DOCTYPE svg PUBLIC "-//W3C//DTD SVG 20010904//EN"
 "http://www.w3.org/TR/2001/REC-SVG-20010904/DTD/svg10.dtd">
<svg version="1.0" xmlns="http://www.w3.org/2000/svg"
 width="600.000000pt" height="73.000000pt" viewBox="0 0 600.000000 73.000000"
 preserveAspectRatio="xMidYMid meet">
<metadata>
Created by potrace 1.15, written by Peter Selinger 2001-2017
</metadata>
<g transform="translate(0.000000,73.000000) scale(0.100000,-0.100000)"
fill="#000000" stroke="none">
<path d="M287 720 c-109 -19 -199 -90 -251 -200 l-31 -65 -3 -227 -4 -228 76
0 76 0 0 150 0 150 308 0 307 0 37 58 37 57 -344 3 -345 2 0 24 c0 28 51 99
93 130 26 20 46 21 275 27 136 4 255 7 264 8 15 1 98 99 98 116 0 8 -539 4
-593 -5z"/>
<path d="M1128 716 c-83 -22 -146 -81 -192 -176 -29 -61 -31 -72 -31 -180 0
-107 2 -119 28 -171 36 -71 99 -136 157 -163 42 -19 66 -21 320 -24 151 -2
298 -1 326 3 105 13 199 94 245 212 31 82 32 215 0 296 -33 85 -89 150 -158
183 l-58 29 -295 2 c-216 2 -307 -1 -342 -11z m578 -121 c53 -16 114 -67 141
-119 42 -81 22 -214 -43 -280 -67 -69 -75 -71 -319 -74 -257 -4 -303 3 -364
55 -100 85 -117 227 -40 332 32 45 62 67 117 87 55 20 441 19 508 -1z"/>
<path d="M1404 529 c-42 -12 -100 -77 -108 -122 -10 -56 9 -110 53 -150 52
-47 111 -57 173 -29 65 29 93 73 93 147 0 73 -27 118 -89 146 -45 20 -74 22
-122 8z"/>
<path d="M2310 723 c-74 -7 -147 -26 -188 -50 -82 -47 -106 -132 -56 -192 37
-45 167 -103 332 -150 164 -47 282 -93 307 -122 15 -16 16 -23 7 -45 -24 -51
-63 -58 -350 -64 l-264 -5 -36 -49 -36 -49 320 6 c344 6 414 15 485 62 45 29
73 85 65 129 -15 81 -140 161 -331 211 -268 71 -345 103 -345 145 0 40 32 45
313 48 l267 3 30 59 c17 33 30 62 30 65 0 5 -490 4 -550 -2z"/>
<path d="M3180 711 c-210 -67 -300 -269 -219 -486 27 -72 108 -159 184 -196
49 -24 54 -24 324 -24 l274 0 34 63 35 62 -184 1 c-100 0 -234 4 -296 8 -102
8 -118 11 -155 37 -27 19 -52 49 -70 84 -25 48 -28 63 -24 122 5 85 40 147
101 183 44 26 48 26 305 32 l260 6 25 59 c14 33 26 61 26 64 0 2 -127 4 -282
3 -242 0 -291 -3 -338 -18z"/>
<path d="M4335 720 c-11 -4 -30 -18 -41 -31 -23 -25 -464 -677 -464 -685 0 -3
39 -3 87 -2 l87 3 169 265 c134 211 173 265 189 265 17 0 39 -28 99 -130 43
-72 78 -133 79 -137 0 -5 -44 -8 -97 -8 -54 0 -135 -3 -180 -6 l-82 -7 40 -58
40 -59 183 0 184 0 38 -65 38 -65 88 0 c48 0 88 3 88 6 0 20 -354 564 -424
651 -36 46 -74 74 -94 72 -4 0 -16 -4 -27 -9z"/>
<path d="M5014 716 c-17 -7 -40 -26 -52 -41 -22 -27 -22 -35 -22 -352 l0 -324
73 3 72 3 -4 261 c-2 144 0 267 4 273 4 7 50 -51 115 -147 60 -88 128 -176
152 -196 119 -102 214 -53 383 199 48 72 94 137 101 145 12 12 14 -28 14 -263
l0 -277 69 0 69 0 5 58 c2 31 3 177 3 324 -1 254 -2 268 -22 295 -26 35 -85
56 -133 47 -49 -10 -121 -86 -251 -268 -68 -94 -111 -146 -123 -146 -11 0 -41
33 -80 87 -101 141 -213 279 -244 301 -39 28 -91 35 -129 18z"/>
</g>
</svg>
